<?xml version="1.0"?><svg width="744.09448819" height="1052.3622047" xmlns="http://www.w3.org/2000/svg">
 <title>Almost transparent paw print</title>
 <metadata id="metadata7">image/svg+xmlAnimal footprintAnimal footprint traces foot print palm</metadata>
 <g>
  <title>Layer 1</title>
  <g externalResourcesRequired="false" id="svg_3">
   <path opacity="0.75" fill="#e5e5e5" d="m369.627441,867.266174c1.088287,-2.211304 -6.339233,-3.484436 -20.327881,-3.484436c-14.15686,0 -24.885712,-1.861877 -29.989716,-5.204712c-4.37085,-2.86261 -10.131897,-5.214478 -12.80249,-5.226318c-2.670502,-0.011841 -4.855377,-1.589355 -4.855377,-3.505676c0,-1.916199 -2.536255,-3.484131 -5.636078,-3.484131c-3.099792,0 -6.354828,-2.351868 -7.233063,-5.226318c-0.878479,-2.874451 -3.060669,-5.226257 -4.849518,-5.226257c-1.788818,0 -5.088684,-3.327759 -7.333069,-7.395325c-2.244293,-4.067383 -5.641296,-9.442993 -7.548767,-11.945801c-1.90741,-2.502808 -3.46814,-6.322998 -3.46814,-8.48938c0,-2.16626 -1.092529,-3.090637 -2.427917,-2.054138c-1.33548,1.036316 -3.222961,-4.358887 -4.194611,-11.989136c-0.971558,-7.63031 -3.000305,-13.873352 -4.508255,-13.873352c-3.394196,0 -3.703827,-51.105103 -0.325623,-53.727112c1.328888,-1.031189 3.204025,-6.82196 4.166946,-12.868286c0.962952,-6.046265 4.066925,-13.526367 6.897736,-16.622253c2.830841,-3.09613 6.039703,-9.17981 7.13089,-13.51947c1.091156,-4.339661 3.00943,-7.094055 4.262726,-6.12146c1.253296,0.972717 3.086609,-2.273865 4.074188,-7.214783c1.567749,-7.844116 5.908142,-14.126038 20.29895,-29.377808c1.907471,-2.021606 3.468048,-6.749756 3.468048,-10.506653c0,-3.75708 1.126007,-6.831116 2.502167,-6.831116c1.37619,0 3.371521,-9.407288 4.434235,-20.905029c1.062561,-11.497986 3.057953,-20.905273 4.434143,-20.905273c1.37616,0 2.502106,-2.242859 2.502106,-4.98407c0,-2.740906 2.777924,-5.484863 6.173218,-6.097351c3.395172,-0.612183 7.746704,-5.032959 9.6698,-9.823853c1.923279,-4.790894 3.515198,-7.220825 3.537598,-5.400574c0.022522,1.820496 1.539246,1.42865 3.370392,-0.871033c1.831116,-2.299377 5.576782,-4.180908 8.323517,-4.180908c2.746857,0 4.994019,-2.018188 4.994019,-4.484802c0,-2.466614 2.597382,-4.73053 5.771729,-5.030823c3.17453,-0.300476 8.963104,-4.553711 12.863739,-9.452026c4.304138,-5.404968 10.215088,-8.905945 15.037018,-8.905945c4.369995,0 7.945343,-1.567871 7.945343,-3.484192c0,-1.916199 4.369873,-3.484192 9.710693,-3.484192c5.340942,0 9.710846,1.567993 9.710846,3.484192c0,1.916321 5.618408,3.484192 12.485321,3.484192c7.662872,0 12.485352,1.570007 12.485352,4.065002c0,2.235596 0.779816,3.085571 1.733093,1.888245c2.559723,-3.214539 25.144897,12.759644 32.902863,23.271729c3.694122,5.005676 8.098511,9.101135 9.787445,9.101135c1.688904,0 2.361908,1.44043 1.495453,3.200745c-0.866394,1.760193 2.181305,4.236572 6.772552,5.503113c4.591187,1.266479 8.347717,3.857727 8.347717,5.758728c0,4.335632 4.754425,10.341064 14.566254,18.399109c4.196289,3.446228 7.629822,7.765442 7.629822,9.598389c0,4.497559 7.210205,13.287109 10.899902,13.287109c1.634949,0 2.972656,3.135925 2.972656,6.968384c0,3.832581 1.224792,6.968445 2.721741,6.968445c1.496826,0 3.505127,3.919739 4.462463,8.710449c0.957642,4.790771 2.769897,8.710449 4.027771,8.710449c1.257507,0 3.15979,3.454529 4.226807,7.677002c1.0672,4.222168 3.648315,9.822021 5.736145,12.443542c2.087585,2.621643 3.795898,7.006287 3.795898,9.74408c0,2.737427 1.248474,4.977356 2.774414,4.977356c1.525818,0 2.774475,3.919739 2.774475,8.710449c0,4.790833 1.191895,8.710632 2.648682,8.710632c1.456848,0 3.468689,5.487366 4.470703,12.194641c1.002014,6.707275 2.792236,12.194763 3.978699,12.194763c1.18634,0 2.976685,5.48761 3.978516,12.194763c1.002014,6.706909 3.013855,12.194519 4.470764,12.194519c1.456726,0 2.648621,9.407227 2.648621,20.905212c0,11.61377 -1.233154,20.905151 -2.774353,20.905151c-1.526062,0 -2.774658,3.184753 -2.774658,7.077698c0,3.892822 -1.9776,8.030823 -4.394287,9.195496c-3.364868,1.621155 -3.572266,2.755493 -0.885742,4.840637c2.253113,1.748901 -0.146057,3.584534 -6.703613,5.129333c-5.61676,1.323242 -10.212219,3.799194 -10.212219,5.502319c0,1.703064 -1.91217,3.096436 -4.248962,3.096436c-2.336914,0 -4.96759,2.351868 -5.845947,5.226379c-0.87854,2.874512 -3.232178,5.226318 -5.230774,5.226318c-1.998596,0 -4.069885,1.643188 -4.603027,3.65155c-0.533081,2.008667 -8.128357,4.579895 -16.878296,5.713928c-8.749817,1.134033 -15.908875,3.268372 -15.908875,4.74292c0,1.474487 -16.230804,3.808167 -36.068604,5.185974c-19.837708,1.377808 -36.068695,3.871582 -36.068695,5.542114c0,1.670349 -6.866974,3.036926 -15.259827,3.036926c-8.392853,0 -15.259827,1.567871 -15.259827,3.484436c0,1.993469 -8.378052,3.483948 -19.585266,3.483948c-12.350372,0 -18.951996,-1.286926 -17.870697,-3.483948zm35.20166,-347.315552c-2.002838,-1.006714 -4.395752,-0.882751 -5.317749,0.274841c-0.922058,1.157898 0.716736,1.981384 3.641571,1.830139c3.232147,-0.167175 3.889557,-0.99292 1.676178,-2.10498zm-204.399796,133.027466c-4.552231,-3.105164 -10.531235,-8.685059 -13.287018,-12.399536c-2.755737,-3.714661 -6.074936,-6.753723 -7.376175,-6.753723c-1.301056,0 -3.149078,-3.9198 -4.10643,-8.710327c-0.957504,-4.790894 -2.965683,-8.710632 -4.462479,-8.710632c-1.497025,0 -2.721832,-3.968933 -2.721832,-8.819885c0,-4.850891 -1.872696,-9.722107 -4.161667,-10.825317c-2.288986,-1.102905 -4.161804,-4.881042 -4.161804,-8.395569c0,-3.514526 -1.131546,-7.26825 -2.514542,-8.341553c-1.383118,-1.073425 -3.406937,-10.181274 -4.497604,-20.239746c-1.090607,-10.058289 -3.392487,-19.405579 -5.115311,-20.771423c-2.037659,-1.615112 -3.132339,-16.829041 -3.132339,-43.532715l0,-41.049591l9.710846,-4.178253c5.340881,-2.298096 8.462265,-4.355225 6.93631,-4.571625c-1.526031,-0.21637 1.595352,-2.349976 6.936111,-4.741608c9.915543,-4.43988 24.970642,-1.375702 24.970642,5.082336c0,1.728973 2.497162,3.143524 5.549057,3.143524c3.052002,0 5.549072,1.567871 5.549072,3.484192c0,1.916321 1.347076,3.484192 2.993546,3.484192c1.646408,0 8.611847,7.05542 15.478867,15.678925c6.866821,8.623352 13.61145,15.678955 14.987823,15.678955c1.37648,0 3.285995,3.919617 4.243576,8.710327c0.957428,4.790771 2.69455,8.710571 3.85997,8.710571c1.165497,0 2.917679,6.271606 3.893799,13.936768c0.976059,7.665161 2.98465,13.936829 4.463608,13.936829c1.47879,0 3.472076,3.919678 4.429688,8.710571c0.95752,4.790771 2.854004,8.710388 4.214539,8.710388c1.360626,0 2.473785,3.135803 2.473785,6.968323c0,3.83252 1.248474,6.968567 2.774536,6.968567c1.61676,0 2.774506,11.545105 2.774506,27.667725c0,15.217468 -1.248535,28.637024 -2.774506,29.82135c-1.526062,1.184265 -2.774536,5.289124 -2.774536,9.121948c0,3.832581 -1.248505,5.999329 -2.774506,4.815063c-1.52597,-1.184692 -2.774536,0.34021 -2.774536,3.387634c0,3.047913 -2.184967,6.553894 -4.855469,7.791077c-2.670364,1.237305 -5.649979,3.736511 -6.621353,5.553772c-0.971344,1.8172 -10.335266,3.983826 -20.808838,4.814392c-14.107574,1.11853 -21.18782,0.046875 -27.319336,-4.135925l0,0zm390.87117,-10.12854c-0.8255,-2.701294 -4.448853,-5.840454 -8.051453,-6.976196c-3.6026,-1.135559 -7.426331,-5.588867 -8.496826,-9.896057c-1.070129,-4.30719 -2.714233,-8.615173 -3.652832,-9.573425c-5.531616,-5.645752 -8.643127,-20.12738 -8.643127,-40.226563c0,-15.764526 -0.95105,-22.16217 -3.051392,-20.532104c-2.21875,1.722046 -2.21875,0.414673 0,-4.791382c1.67804,-3.937988 3.051392,-12.766052 3.051392,-19.617859c0,-8.146118 1.920471,-14.522766 5.549072,-18.424377c3.051941,-3.281555 5.568054,-9.929504 5.591248,-14.773499c0.037109,-7.705261 5.353455,-23.727509 5.46405,-16.467224c0.107239,7.052277 13.915222,-16.967499 13.915222,-24.206818c0,-5.185974 1.627625,-8.201599 4.427002,-8.201599c2.434753,0 7.952576,-3.152557 12.261658,-7.005554c12.856689,-11.496674 58.223206,-8.820068 58.223206,3.435059c0,1.963959 1.672119,3.570496 3.716064,3.570496c3.88385,0 10.156189,14.088135 10.156189,22.811157c0,2.784332 1.248474,5.062439 2.774536,5.062439c1.673462,0 2.774536,14.517548 2.774536,36.584076c0,20.121277 -1.088806,36.584045 -2.419861,36.584045c-1.330994,0 -3.2323,6.378418 -4.224792,14.174255c-1.031921,8.1026 -4.749084,17.87146 -8.678101,22.805725c-3.780273,4.74707 -6.87323,10.911743 -6.87323,13.699219c0,2.787415 -1.248474,5.067749 -2.774536,5.067749c-1.525879,0 -2.774597,2.401245 -2.774597,5.335632c0,2.934875 -1.749878,6.179077 -3.888428,7.209595c-2.138306,1.030579 -4.517822,4.897034 -5.287354,8.591858c-0.769104,3.695068 -4.325867,8.190796 -7.903137,9.990784c-3.845337,1.934631 -4.802979,3.463074 -2.34259,3.738159c11.672119,1.306519 -9.299255,6.483459 -27.138428,6.699707c-14.960083,0.181335 -20.591736,-1.029724 -21.703491,-4.667297zm-452.90657,-158.845306c0,-4.790497 0.629776,-6.750244 1.399521,-4.355072c0.769531,2.395355 0.769531,6.315125 0,8.710297c-0.769745,2.395508 -1.399521,0.43576 -1.399521,-4.355225zm175.24321,-2.467651c1.032318,-2.097839 -1.560303,-4.495422 -6.091217,-5.633423c-8.988983,-2.257538 -28.089966,-23.953125 -28.089966,-31.905548c0,-2.908356 -1.171967,-5.287811 -2.604584,-5.287811c-1.432434,0 -3.445038,-7.039337 -4.472534,-15.643158c-1.027405,-8.60379 -2.976654,-14.78299 -4.331635,-13.731323c-1.355072,1.051727 -2.463776,-2.976624 -2.463776,-8.95163c0,-6.355255 -1.151428,-9.970184 -2.774597,-8.710541c-1.624329,1.260651 -2.85376,-2.626129 -2.965698,-9.375977c-0.597961,-36.048431 -2.71698,-89.489105 -3.876373,-97.763c-0.738449,-5.269867 -0.125305,-9.581482 1.362488,-9.581482c1.487732,0 2.705048,-4.796356 2.705048,-10.658325c0,-6.218323 1.155792,-9.761108 2.774536,-8.504883c1.526001,1.184235 2.774597,-0.291122 2.774597,-3.278458c0,-2.987686 1.872742,-5.432007 4.161774,-5.432007c2.288788,0 4.161713,-2.521652 4.161713,-5.604034c0,-4.237671 1.690979,-5.070953 6.93634,-3.417618c5.118591,1.613174 6.936218,0.799026 6.936218,-3.106567c0,-6.027832 11.137451,-7.213959 18.765686,-1.998917c2.649628,1.811646 9.499634,4.234344 15.222015,5.384308c5.722504,1.14949 10.404419,3.466461 10.404419,5.148376c0,3.815552 16.277863,24.499619 19.280518,24.499619c1.213531,0 2.988342,6.140106 3.943878,13.644592c0.955536,7.504486 2.675812,14.168121 3.822723,14.8078c1.146912,0.639862 4.582336,7.334808 7.634277,14.877838c4.829987,11.937469 5.516754,20.21875 5.299347,63.907501c-0.145935,29.344818 -1.405182,51.144836 -3.03186,52.485107c-1.530151,1.260773 -3.558228,7.30481 -4.506866,13.431305c-1.948395,12.582336 -9.626007,25.44516 -15.187958,25.44516c-2.039978,0 -3.062439,1.313416 -2.2724,2.918823c0.790192,1.605377 -4.442474,4.631165 -11.627899,6.724091c-7.185455,2.092621 -15.454346,4.965179 -18.375031,6.383453c-3.430298,1.665802 -4.674133,1.285736 -3.513184,-1.073273zm154.485535,-28.889954c0,-1.916321 -2.184875,-3.511444 -4.855377,-3.544403c-6.666351,-0.082642 -17.340668,-14.95163 -17.340668,-24.154694c0,-4.154938 -1.248505,-6.585205 -2.774475,-5.400696c-1.802246,1.398773 -2.774506,-16.029938 -2.774506,-49.734619c0,-28.538361 -0.861694,-52.969635 -1.914459,-54.291901c-1.052948,-1.322266 -1.575714,-10.598969 -1.161652,-20.614899c0.780426,-18.87738 9.03418,-40.857971 15.342346,-40.857971c1.919556,0 4.985779,-4.122391 6.813782,-9.160721c1.828033,-5.038528 4.038361,-8.263397 4.911682,-7.166687c0.873413,1.096817 5.788391,-0.832977 10.922119,-4.288315c10.086731,-6.789001 33.591919,-7.610733 36.771729,-1.285828c1.011353,2.011673 8.027527,4.423141 15.591431,5.358871c7.563904,0.93576 14.27002,3.651108 14.902466,6.033691c0.632446,2.382385 3.495483,6.853989 6.36261,9.936722c2.866943,3.082947 5.21283,7.477875 5.21283,9.766724c0,2.288757 1.529053,4.801636 3.397888,5.583923c4.69635,1.965759 4.970154,95.857574 0.290222,99.490448c-1.786438,1.38681 -4.106934,6.817688 -5.156128,12.068176c-1.049438,5.250519 -2.92218,9.5466 -4.161438,9.5466c-1.23938,0 -3.075928,4.703796 -4.081482,10.452637c-1.005432,5.748871 -2.977234,10.452637 -4.38208,10.452637c-1.404724,0 -2.554077,2.426453 -2.554077,5.392639c0,6.563599 -13.171753,22.480835 -18.603271,22.480835c-2.15625,0 -3.233215,1.395966 -2.393555,3.102234c0.8396,1.706116 -2.832214,4.129059 -8.159821,5.384186c-5.327515,1.254974 -9.686371,3.778809 -9.686371,5.608307c0,1.829468 -6.867035,3.326294 -15.259918,3.326294c-8.392914,0 -15.259827,-1.567871 -15.259827,-3.484192zm25.722015,-232.062057c0.921967,-1.157745 3.315033,-1.281403 5.317871,-0.274979c2.213226,1.112152 1.555817,1.937836 -1.676331,2.104919c-2.924744,0.151505 -4.563477,-0.672104 -3.641541,-1.829941z" id="svg_4" transform="rotate(33.4707 412.851 545.47)"/>
  </g>
 </g>
</svg>